<mxfile host="Electron" agent="Mozilla/5.0 (Windows NT 10.0; Win64; x64) AppleWebKit/537.36 (KHTML, like Gecko) draw.io/26.0.16 Chrome/132.0.6834.196 Electron/34.2.0 Safari/537.36" version="26.0.16">
  <diagram name="Page-1" id="2fgjM6e5JEU-LKsv0vup">
    <mxGraphModel dx="1185" dy="683" grid="1" gridSize="10" guides="1" tooltips="1" connect="1" arrows="1" fold="1" page="1" pageScale="1" pageWidth="1700" pageHeight="1100" math="0" shadow="0">
      <root>
        <mxCell id="0" />
        <mxCell id="1" parent="0" />
        <mxCell id="J2sCJQliTzjDpWUBcW_3-5" value="" style="rounded=0;whiteSpace=wrap;html=1;fillColor=none;dashed=1;strokeColor=light-dark(#3b3b3b, #151313);" parent="1" vertex="1">
          <mxGeometry x="240" y="110" width="640" height="490" as="geometry" />
        </mxCell>
        <mxCell id="J2sCJQliTzjDpWUBcW_3-1" value="&lt;b&gt;&lt;font style=&quot;font-size: 30px;&quot;&gt;High Level Architecture&lt;/font&gt;&lt;/b&gt;" style="text;html=1;align=center;verticalAlign=middle;resizable=0;points=[];autosize=1;strokeColor=none;fillColor=none;" parent="1" vertex="1">
          <mxGeometry x="10" y="20" width="360" height="50" as="geometry" />
        </mxCell>
        <mxCell id="J2sCJQliTzjDpWUBcW_3-2" value="" style="rounded=0;whiteSpace=wrap;html=1;fillColor=none;dashed=1;strokeColor=light-dark(#3b3b3b, #151313);" parent="1" vertex="1">
          <mxGeometry x="40" y="110" width="120" height="490" as="geometry" />
        </mxCell>
        <mxCell id="J2sCJQliTzjDpWUBcW_3-3" value="&lt;font style=&quot;font-size: 20px;&quot;&gt;&lt;b&gt;Sources&lt;/b&gt;&lt;/font&gt;" style="rounded=0;whiteSpace=wrap;html=1;strokeColor=none;" parent="1" vertex="1">
          <mxGeometry x="60" y="90" width="80" height="30" as="geometry" />
        </mxCell>
        <mxCell id="J2sCJQliTzjDpWUBcW_3-6" value="&lt;font style=&quot;font-size: 20px;&quot;&gt;&lt;b&gt;Data Warehouse&lt;/b&gt;&lt;/font&gt;" style="rounded=0;whiteSpace=wrap;html=1;strokeColor=none;" parent="1" vertex="1">
          <mxGeometry x="500" y="90" width="160" height="30" as="geometry" />
        </mxCell>
        <mxCell id="J2sCJQliTzjDpWUBcW_3-7" value="" style="rounded=0;whiteSpace=wrap;html=1;fillColor=none;dashed=1;strokeColor=light-dark(#3b3b3b, #151313);" parent="1" vertex="1">
          <mxGeometry x="960" y="110" width="120" height="490" as="geometry" />
        </mxCell>
        <mxCell id="J2sCJQliTzjDpWUBcW_3-8" value="&lt;font style=&quot;font-size: 20px;&quot;&gt;&lt;b&gt;Consume&lt;/b&gt;&lt;/font&gt;" style="rounded=0;whiteSpace=wrap;html=1;strokeColor=none;" parent="1" vertex="1">
          <mxGeometry x="980" y="90" width="80" height="30" as="geometry" />
        </mxCell>
        <mxCell id="J2sCJQliTzjDpWUBcW_3-9" value="&lt;font style=&quot;font-size: 16px;&quot;&gt;&lt;b&gt;Bronze Layer&lt;/b&gt;&lt;/font&gt;" style="rounded=0;whiteSpace=wrap;html=1;fillColor=#ffe6cc;strokeColor=#d79b00;" parent="1" vertex="1">
          <mxGeometry x="280" y="160" width="160" height="30" as="geometry" />
        </mxCell>
        <mxCell id="J2sCJQliTzjDpWUBcW_3-10" value="" style="rounded=0;whiteSpace=wrap;html=1;fillColor=none;strokeColor=#d79b00;" parent="1" vertex="1">
          <mxGeometry x="280" y="200" width="160" height="380" as="geometry" />
        </mxCell>
        <mxCell id="J2sCJQliTzjDpWUBcW_3-11" value="&lt;font style=&quot;font-size: 16px;&quot;&gt;&lt;b&gt;Silver Layer&lt;/b&gt;&lt;/font&gt;" style="rounded=0;whiteSpace=wrap;html=1;fillColor=#f5f5f5;strokeColor=#666666;fontColor=#333333;" parent="1" vertex="1">
          <mxGeometry x="480" y="160" width="160" height="30" as="geometry" />
        </mxCell>
        <mxCell id="J2sCJQliTzjDpWUBcW_3-12" value="" style="rounded=0;whiteSpace=wrap;html=1;fillColor=none;strokeColor=#666666;fontColor=#333333;" parent="1" vertex="1">
          <mxGeometry x="480" y="200" width="160" height="380" as="geometry" />
        </mxCell>
        <mxCell id="J2sCJQliTzjDpWUBcW_3-13" value="&lt;font style=&quot;font-size: 16px;&quot;&gt;&lt;b&gt;Gold Layer&lt;/b&gt;&lt;/font&gt;" style="rounded=0;whiteSpace=wrap;html=1;fillColor=#fff2cc;strokeColor=#d6b656;" parent="1" vertex="1">
          <mxGeometry x="680" y="160" width="160" height="30" as="geometry" />
        </mxCell>
        <mxCell id="J2sCJQliTzjDpWUBcW_3-16" value="" style="rounded=0;whiteSpace=wrap;html=1;fillColor=none;strokeColor=#d6b656;" parent="1" vertex="1">
          <mxGeometry x="680" y="200" width="160" height="380" as="geometry" />
        </mxCell>
        <mxCell id="J2sCJQliTzjDpWUBcW_3-17" value="&lt;b&gt;&lt;font style=&quot;font-size: 11px;&quot;&gt;CRM&amp;nbsp;&lt;/font&gt;&lt;/b&gt;" style="image;aspect=fixed;html=1;points=[];align=center;fontSize=12;image=img/lib/azure2/general/Folder_Blank.svg;" parent="1" vertex="1">
          <mxGeometry x="74.71" y="230" width="49.29" height="40" as="geometry" />
        </mxCell>
        <mxCell id="J2sCJQliTzjDpWUBcW_3-18" value="" style="image;aspect=fixed;html=1;points=[];align=center;fontSize=12;image=img/lib/azure2/general/Media_File.svg;" parent="1" vertex="1">
          <mxGeometry x="110" y="260" width="16.25" height="20" as="geometry" />
        </mxCell>
        <mxCell id="J2sCJQliTzjDpWUBcW_3-19" value="&lt;b&gt;&lt;font style=&quot;font-size: 11px;&quot;&gt;ERP&lt;/font&gt;&lt;/b&gt;" style="image;aspect=fixed;html=1;points=[];align=center;fontSize=12;image=img/lib/azure2/general/Folder_Blank.svg;" parent="1" vertex="1">
          <mxGeometry x="74.71" y="350" width="49.29" height="40" as="geometry" />
        </mxCell>
        <mxCell id="J2sCJQliTzjDpWUBcW_3-20" value="" style="image;aspect=fixed;html=1;points=[];align=center;fontSize=12;image=img/lib/azure2/general/Media_File.svg;" parent="1" vertex="1">
          <mxGeometry x="110" y="380" width="16.25" height="20" as="geometry" />
        </mxCell>
        <mxCell id="J2sCJQliTzjDpWUBcW_3-21" value="" style="endArrow=none;html=1;rounded=0;entryX=1.011;entryY=0.857;entryDx=0;entryDy=0;entryPerimeter=0;strokeColor=light-dark(#3b3b3b, #ededed);" parent="1" edge="1">
          <mxGeometry width="50" height="50" relative="1" as="geometry">
            <mxPoint x="53.5" y="430" as="sourcePoint" />
            <mxPoint x="146.50999999999993" y="430.0000000000001" as="targetPoint" />
          </mxGeometry>
        </mxCell>
        <mxCell id="J2sCJQliTzjDpWUBcW_3-29" value="&lt;font style=&quot;font-size: 9px;&quot;&gt;&lt;b style=&quot;&quot;&gt;Object Type:&lt;/b&gt; CSV Files&lt;/font&gt;&lt;div&gt;&lt;font size=&quot;1&quot;&gt;&lt;br&gt;&lt;/font&gt;&lt;div&gt;&lt;font style=&quot;font-size: 9px;&quot;&gt;&lt;b style=&quot;&quot;&gt;Interface:&lt;/b&gt; Files in Folder&lt;/font&gt;&lt;/div&gt;&lt;/div&gt;" style="text;html=1;align=center;verticalAlign=middle;whiteSpace=wrap;rounded=0;" parent="1" vertex="1">
          <mxGeometry x="44.360000000000014" y="448" width="115.64" height="30" as="geometry" />
        </mxCell>
        <mxCell id="J2sCJQliTzjDpWUBcW_3-30" value="" style="html=1;verticalLabelPosition=bottom;align=center;labelBackgroundColor=#ffffff;verticalAlign=top;strokeWidth=2;strokeColor=#d79b00;shadow=0;dashed=0;shape=mxgraph.ios7.icons.data;fillColor=#ffe6cc;" parent="1" vertex="1">
          <mxGeometry x="334.75" y="230" width="50.5" height="60" as="geometry" />
        </mxCell>
        <mxCell id="J2sCJQliTzjDpWUBcW_3-31" value="" style="html=1;verticalLabelPosition=bottom;align=center;labelBackgroundColor=#ffffff;verticalAlign=top;strokeWidth=2;strokeColor=#d6b656;shadow=0;dashed=0;shape=mxgraph.ios7.icons.data;fillColor=#fff2cc;" parent="1" vertex="1">
          <mxGeometry x="734.75" y="230" width="50.5" height="60" as="geometry" />
        </mxCell>
        <mxCell id="J2sCJQliTzjDpWUBcW_3-32" value="" style="html=1;verticalLabelPosition=bottom;align=center;labelBackgroundColor=#ffffff;verticalAlign=top;strokeWidth=2;strokeColor=#666666;shadow=0;dashed=0;shape=mxgraph.ios7.icons.data;fillColor=#f5f5f5;fontColor=#333333;" parent="1" vertex="1">
          <mxGeometry x="534.75" y="230" width="50.5" height="60" as="geometry" />
        </mxCell>
        <mxCell id="J2sCJQliTzjDpWUBcW_3-34" value="" style="shape=singleArrow;whiteSpace=wrap;html=1;fillColor=#dae8fc;strokeColor=#6c8ebf;" parent="1" vertex="1">
          <mxGeometry x="430" y="250" width="60" height="30" as="geometry" />
        </mxCell>
        <mxCell id="J2sCJQliTzjDpWUBcW_3-38" value="Raw Data" style="text;html=1;align=center;verticalAlign=middle;whiteSpace=wrap;rounded=0;" parent="1" vertex="1">
          <mxGeometry x="330" y="290" width="60" height="30" as="geometry" />
        </mxCell>
        <mxCell id="J2sCJQliTzjDpWUBcW_3-39" value="Cleaned, Standardized Data" style="text;html=1;align=center;verticalAlign=middle;whiteSpace=wrap;rounded=0;" parent="1" vertex="1">
          <mxGeometry x="490" y="298" width="140" height="30" as="geometry" />
        </mxCell>
        <mxCell id="J2sCJQliTzjDpWUBcW_3-40" value="Business-Ready Data" style="text;html=1;align=center;verticalAlign=middle;whiteSpace=wrap;rounded=0;" parent="1" vertex="1">
          <mxGeometry x="700" y="290" width="120" height="30" as="geometry" />
        </mxCell>
        <mxCell id="J2sCJQliTzjDpWUBcW_3-41" value="" style="endArrow=none;html=1;rounded=0;entryX=1.011;entryY=0.857;entryDx=0;entryDy=0;entryPerimeter=0;strokeColor=#d79b00;fillColor=#ffe6cc;" parent="1" edge="1">
          <mxGeometry width="50" height="50" relative="1" as="geometry">
            <mxPoint x="306.75" y="330.29" as="sourcePoint" />
            <mxPoint x="413.25999999999993" y="330.0000000000001" as="targetPoint" />
          </mxGeometry>
        </mxCell>
        <mxCell id="J2sCJQliTzjDpWUBcW_3-42" value="" style="endArrow=none;html=1;rounded=0;entryX=1.011;entryY=0.857;entryDx=0;entryDy=0;entryPerimeter=0;strokeColor=#666666;fillColor=#f5f5f5;" parent="1" edge="1">
          <mxGeometry width="50" height="50" relative="1" as="geometry">
            <mxPoint x="506.75" y="330.29" as="sourcePoint" />
            <mxPoint x="613.26" y="330.0000000000001" as="targetPoint" />
          </mxGeometry>
        </mxCell>
        <mxCell id="J2sCJQliTzjDpWUBcW_3-43" value="" style="endArrow=none;html=1;rounded=0;entryX=1.011;entryY=0.857;entryDx=0;entryDy=0;entryPerimeter=0;strokeColor=#d6b656;fillColor=#fff2cc;" parent="1" edge="1">
          <mxGeometry width="50" height="50" relative="1" as="geometry">
            <mxPoint x="706.74" y="329.72" as="sourcePoint" />
            <mxPoint x="813.25" y="329.4300000000001" as="targetPoint" />
          </mxGeometry>
        </mxCell>
        <mxCell id="J2sCJQliTzjDpWUBcW_3-44" value="&lt;div&gt;&lt;div&gt;&lt;font style=&quot;font-size: 10px;&quot;&gt;&lt;b style=&quot;&quot;&gt;Object Type:&amp;nbsp;&lt;/b&gt;Tables&lt;/font&gt;&lt;/div&gt;&lt;div&gt;&lt;font style=&quot;font-size: 10px;&quot;&gt;&lt;b&gt;Load:&lt;/b&gt;&amp;nbsp;&lt;br&gt;&lt;/font&gt;&lt;ul&gt;&lt;li&gt;&lt;font style=&quot;font-size: 10px;&quot;&gt;Batch Processing&lt;/font&gt;&lt;/li&gt;&lt;li&gt;&lt;font style=&quot;font-size: 10px;&quot;&gt;Full Load&amp;nbsp;&lt;/font&gt;&lt;/li&gt;&lt;li&gt;&lt;font style=&quot;font-size: 10px;&quot;&gt;Truncate &amp;amp; Insert&lt;/font&gt;&lt;/li&gt;&lt;/ul&gt;&lt;div&gt;&lt;font style=&quot;font-size: 10px;&quot;&gt;No &lt;b&gt;Transformations&lt;/b&gt;&lt;/font&gt;&lt;/div&gt;&lt;/div&gt;&lt;div&gt;&lt;font style=&quot;font-size: 10px;&quot;&gt;&lt;b style=&quot;&quot;&gt;Data Model:&lt;/b&gt; None (as-is)&lt;/font&gt;&lt;/div&gt;&lt;/div&gt;" style="text;align=left;verticalAlign=middle;rounded=0;spacing=2;spacingBottom=0;spacingTop=1;fontStyle=0;html=1;whiteSpace=wrap;" parent="1" vertex="1">
          <mxGeometry x="290" y="327.5" width="161.95" height="145" as="geometry" />
        </mxCell>
        <mxCell id="J2sCJQliTzjDpWUBcW_3-45" value="&lt;div&gt;&lt;font style=&quot;font-size: 10px;&quot;&gt;&lt;b style=&quot;&quot;&gt;Object Type:&amp;nbsp;&lt;/b&gt;Tables&lt;/font&gt;&lt;/div&gt;&lt;div&gt;&lt;font style=&quot;font-size: 10px;&quot;&gt;&lt;b&gt;Load:&lt;/b&gt;&amp;nbsp;&lt;br&gt;&lt;/font&gt;&lt;ul&gt;&lt;li&gt;&lt;font style=&quot;font-size: 10px;&quot;&gt;Batch Processing&lt;/font&gt;&lt;/li&gt;&lt;li&gt;&lt;font style=&quot;font-size: 10px;&quot;&gt;Full Load&amp;nbsp;&lt;/font&gt;&lt;/li&gt;&lt;li&gt;&lt;font style=&quot;font-size: 10px;&quot;&gt;Truncate &amp;amp; Insert&lt;/font&gt;&lt;/li&gt;&lt;/ul&gt;&lt;div&gt;&lt;font style=&quot;font-size: 10px;&quot;&gt;&lt;b&gt;Transformations:&lt;/b&gt;&lt;/font&gt;&lt;/div&gt;&lt;/div&gt;&lt;div&gt;&lt;ul&gt;&lt;li&gt;&lt;font style=&quot;font-size: 10px;&quot;&gt;Data Cleansing&lt;/font&gt;&lt;/li&gt;&lt;li&gt;&lt;font style=&quot;font-size: 10px;&quot;&gt;Data Standardization&lt;/font&gt;&lt;/li&gt;&lt;li&gt;&lt;font style=&quot;font-size: 10px;&quot;&gt;Data Normalization&lt;/font&gt;&lt;/li&gt;&lt;li&gt;&lt;font style=&quot;font-size: 10px;&quot;&gt;Derived Columns&lt;/font&gt;&lt;/li&gt;&lt;li&gt;&lt;font style=&quot;font-size: 10px;&quot;&gt;Data Enrichment&lt;/font&gt;&lt;/li&gt;&lt;/ul&gt;&lt;/div&gt;&lt;div&gt;&lt;font style=&quot;font-size: 10px;&quot;&gt;&lt;b style=&quot;&quot;&gt;Data Model:&lt;/b&gt; None (as-is)&lt;/font&gt;&lt;/div&gt;" style="text;align=left;verticalAlign=middle;rounded=0;spacing=2;spacingBottom=0;spacingTop=1;fontStyle=0;html=1;whiteSpace=wrap;" parent="1" vertex="1">
          <mxGeometry x="490" y="333" width="161.95" height="230" as="geometry" />
        </mxCell>
        <mxCell id="J2sCJQliTzjDpWUBcW_3-46" value="" style="shape=singleArrow;whiteSpace=wrap;html=1;fillColor=#dae8fc;strokeColor=#6c8ebf;" parent="1" vertex="1">
          <mxGeometry x="630" y="250" width="60" height="30" as="geometry" />
        </mxCell>
        <mxCell id="J2sCJQliTzjDpWUBcW_3-49" value="" style="shape=singleArrow;whiteSpace=wrap;html=1;fillColor=#dae8fc;strokeColor=#6c8ebf;" parent="1" vertex="1">
          <mxGeometry x="170" y="250" width="60" height="30" as="geometry" />
        </mxCell>
        <mxCell id="J2sCJQliTzjDpWUBcW_3-50" value="" style="shape=singleArrow;whiteSpace=wrap;html=1;fillColor=#dae8fc;strokeColor=#6c8ebf;" parent="1" vertex="1">
          <mxGeometry x="890" y="250" width="60" height="30" as="geometry" />
        </mxCell>
        <mxCell id="J2sCJQliTzjDpWUBcW_3-51" value="&lt;div&gt;&lt;font style=&quot;font-size: 10px;&quot;&gt;&lt;b style=&quot;&quot;&gt;Object Type: &lt;/b&gt;Views&lt;/font&gt;&lt;/div&gt;&lt;div&gt;&lt;span style=&quot;color: rgba(0, 0, 0, 0); font-family: monospace; font-size: 0px; text-wrap-mode: nowrap; background-color: transparent;&quot;&gt;%3CmxGraphModel%3E%3Croot%3E%3CmxCell%20id%3D%220%22%2F%3E%3CmxCell%20id%3D%221%22%20parent%3D%220%22%2F%3E%3CmxCell%20id%3D%222%22%20value%3D%22%26lt%3Bdiv%26gt%3B%26lt%3Bfont%20style%3D%26quot%3Bfont-size%3A%2010px%3B%26quot%3B%26gt%3B%26lt%3Bb%20style%3D%26quot%3B%26quot%3B%26gt%3BObject%20Type%3A%26amp%3Bnbsp%3B%26lt%3B%2Fb%26gt%3BTables%26lt%3B%2Ffont%26gt%3B%26lt%3B%2Fdiv%26gt%3B%26lt%3Bdiv%26gt%3B%26lt%3Bfont%20style%3D%26quot%3Bfont-size%3A%2010px%3B%26quot%3B%26gt%3B%26lt%3Bb%26gt%3BLoad%3A%26lt%3B%2Fb%26gt%3B%26amp%3Bnbsp%3B%26lt%3Bbr%26gt%3B%26lt%3B%2Ffont%26gt%3B%26lt%3Bul%26gt%3B%26lt%3Bli%26gt%3B%26lt%3Bfont%20style%3D%26quot%3Bfont-size%3A%2010px%3B%26quot%3B%26gt%3BBatch%20Processing%26lt%3B%2Ffont%26gt%3B%26lt%3B%2Fli%26gt%3B%26lt%3Bli%26gt%3B%26lt%3Bfont%20style%3D%26quot%3Bfont-size%3A%2010px%3B%26quot%3B%26gt%3BFull%20Load%26amp%3Bnbsp%3B%26lt%3B%2Ffont%26gt%3B%26lt%3B%2Fli%26gt%3B%26lt%3Bli%26gt%3B%26lt%3Bfont%20style%3D%26quot%3Bfont-size%3A%2010px%3B%26quot%3B%26gt%3BTruncate%20%26amp%3Bamp%3B%20Insert%26lt%3B%2Ffont%26gt%3B%26lt%3B%2Fli%26gt%3B%26lt%3B%2Ful%26gt%3B%26lt%3Bdiv%26gt%3B%26lt%3Bfont%20style%3D%26quot%3Bfont-size%3A%2010px%3B%26quot%3B%26gt%3B%26lt%3Bb%26gt%3BTransformations%3A%26lt%3B%2Fb%26gt%3B%26lt%3B%2Ffont%26gt%3B%26lt%3B%2Fdiv%26gt%3B%26lt%3B%2Fdiv%26gt%3B%26lt%3Bdiv%26gt%3B%26lt%3Bul%26gt%3B%26lt%3Bli%26gt%3B%26lt%3Bfont%20style%3D%26quot%3Bfont-size%3A%2010px%3B%26quot%3B%26gt%3BData%20Cleansing%26lt%3B%2Ffont%26gt%3B%26lt%3B%2Fli%26gt%3B%26lt%3Bli%26gt%3B%26lt%3Bfont%20style%3D%26quot%3Bfont-size%3A%2010px%3B%26quot%3B%26gt%3BData%20Standardization%26lt%3B%2Ffont%26gt%3B%26lt%3B%2Fli%26gt%3B%26lt%3Bli%26gt%3B%26lt%3Bfont%20style%3D%26quot%3Bfont-size%3A%2010px%3B%26quot%3B%26gt%3BData%20Normalization%26lt%3B%2Ffont%26gt%3B%26lt%3B%2Fli%26gt%3B%26lt%3Bli%26gt%3B%26lt%3Bfont%20style%3D%26quot%3Bfont-size%3A%2010px%3B%26quot%3B%26gt%3BDerived%20Columns%26lt%3B%2Ffont%26gt%3B%26lt%3B%2Fli%26gt%3B%26lt%3Bli%26gt%3B%26lt%3Bfont%20style%3D%26quot%3Bfont-size%3A%2010px%3B%26quot%3B%26gt%3BData%20Enrichment%26lt%3B%2Ffont%26gt%3B%26lt%3B%2Fli%26gt%3B%26lt%3B%2Ful%26gt%3B%26lt%3B%2Fdiv%26gt%3B%26lt%3Bdiv%26gt%3B%26lt%3Bfont%20style%3D%26quot%3Bfont-size%3A%2010px%3B%26quot%3B%26gt%3B%26lt%3Bb%20style%3D%26quot%3B%26quot%3B%26gt%3BData%20Model%3A%26lt%3B%2Fb%26gt%3B%20None%20(as-is)%26lt%3B%2Ffont%26gt%3B%26lt%3B%2Fdiv%26gt%3B%22%20style%3D%22text%3Balign%3Dleft%3BverticalAlign%3Dmiddle%3Brounded%3D0%3Bspacing%3D2%3BspacingBottom%3D0%3BspacingTop%3D1%3BfontStyle%3D0%3Bhtml%3D1%3BwhiteSpace%3Dwrap%3B%22%20vertex%3D%221%22%20parent%3D%221%22%3E%3CmxGeometry%20x%3D%22530%22%20y%3D%22420%22%20width%3D%22161.95%22%20height%3D%22230%22%20as%3D%22geometry%22%2F%3E%3C%2FmxCell%3E%3C%2Froot%3E%3C%2FmxGraphModel%3E&lt;/span&gt;&lt;span style=&quot;font-size: 10px; background-color: transparent; color: light-dark(rgb(0, 0, 0), rgb(255, 255, 255));&quot;&gt;No&amp;nbsp;&lt;/span&gt;&lt;b style=&quot;font-size: 10px; background-color: transparent; color: light-dark(rgb(0, 0, 0), rgb(255, 255, 255));&quot;&gt;Load&lt;/b&gt;&lt;/div&gt;&lt;div&gt;&lt;span style=&quot;font-size: 10px;&quot;&gt;&lt;b&gt;&lt;br&gt;&lt;/b&gt;&lt;/span&gt;&lt;div&gt;&lt;font style=&quot;font-size: 10px;&quot;&gt;&lt;b&gt;Transformations:&lt;/b&gt;&lt;/font&gt;&lt;/div&gt;&lt;/div&gt;&lt;div&gt;&lt;ul&gt;&lt;li&gt;&lt;font style=&quot;font-size: 10px;&quot;&gt;Data Integrations&lt;/font&gt;&lt;/li&gt;&lt;li&gt;&lt;font style=&quot;font-size: 10px;&quot;&gt;Aggregations&lt;/font&gt;&lt;/li&gt;&lt;li&gt;&lt;font style=&quot;font-size: 10px;&quot;&gt;Business Logics&lt;/font&gt;&lt;/li&gt;&lt;/ul&gt;&lt;/div&gt;&lt;div&gt;&lt;font style=&quot;font-size: 10px;&quot;&gt;&lt;b style=&quot;&quot;&gt;Data Model:&lt;/b&gt;&amp;nbsp;&lt;/font&gt;&lt;/div&gt;&lt;div&gt;&lt;ul&gt;&lt;li&gt;&lt;font style=&quot;font-size: 10px;&quot;&gt;Star Schema&lt;/font&gt;&lt;/li&gt;&lt;li&gt;&lt;font style=&quot;font-size: 10px;&quot;&gt;Flat Table&lt;/font&gt;&lt;/li&gt;&lt;li&gt;&lt;font style=&quot;font-size: 10px;&quot;&gt;Aggregated Table&lt;/font&gt;&lt;/li&gt;&lt;/ul&gt;&lt;/div&gt;" style="text;align=left;verticalAlign=middle;rounded=0;spacing=2;spacingBottom=0;spacingTop=1;fontStyle=0;html=1;whiteSpace=wrap;" parent="1" vertex="1">
          <mxGeometry x="690" y="326.5" width="161.95" height="230" as="geometry" />
        </mxCell>
        <mxCell id="J2sCJQliTzjDpWUBcW_3-52" value="" style="image;aspect=fixed;html=1;points=[];align=center;fontSize=12;image=img/lib/azure2/analytics/Power_BI_Embedded.svg;" parent="1" vertex="1">
          <mxGeometry x="974" y="175.25" width="36" height="48" as="geometry" />
        </mxCell>
        <mxCell id="J2sCJQliTzjDpWUBcW_3-54" value="" style="sketch=0;html=1;aspect=fixed;strokeColor=none;shadow=0;fillColor=#3B8DF1;verticalAlign=top;labelPosition=center;verticalLabelPosition=bottom;shape=mxgraph.gcp2.big_query" parent="1" vertex="1">
          <mxGeometry x="987.81" y="295" width="64.35" height="65" as="geometry" />
        </mxCell>
        <mxCell id="J2sCJQliTzjDpWUBcW_3-55" value="" style="sketch=0;outlineConnect=0;fontColor=#232F3E;gradientColor=none;fillColor=#7AA116;strokeColor=none;dashed=0;verticalLabelPosition=bottom;verticalAlign=top;align=center;html=1;fontSize=12;fontStyle=0;aspect=fixed;pointerEvents=1;shape=mxgraph.aws4.iot_greengrass_component_machine_learning;" parent="1" vertex="1">
          <mxGeometry x="981" y="440" width="78" height="78" as="geometry" />
        </mxCell>
        <mxCell id="J2sCJQliTzjDpWUBcW_3-57" value="" style="shape=image;imageAspect=0;aspect=fixed;verticalLabelPosition=bottom;verticalAlign=top;image=data:image/png,iVBORw0KGgoAAAANSUhEUgAAAOEAAADhCAMAAAAJbSJIAAAA8FBMVEX////7+/v+/v78/Pz9/f36+vrodi1cZpJbh5vHIDcfRX7rkSlxmabjdC1bZY/DIDdskqT87+jwq4rGGzShucTxtXZBXIzXbXnnbBDncSHrjyRVYI5KfZP64tfqjRnwqH/0xpfMQVHzvokAMHPuoUrb3eZlbpe9ztR8hKbExtV/o69sgKWgpb5jkJ8TP3rDABt5nan66+2ssMTf5uqetcC5ytLzv6TFBSnSXGj13tPv7/P2zqeGja1LV4nG1dnvp2HiZQAAOXjko6rqiADsmTv65c/voXbdi5TYeoWJmbXLN0rLTFrCABJJYo8AKnEpTYS8QF17AAAUbElEQVR4nL1dC3sVtxHduw8MxNi4NhS4hISWGNvFCa2hIU4oSfNomzbh//+b7kPSzoxmpBntXivfF9bXc1dzJI3OjGZ2XTXV2JpNO11sNvX4b73ZTB+0GyrSOBGNbCRSe5GVZRNq5r7ZJQBWkmy3qtKtYmzFrv3H+lnRzGDUSwwwPxhM1wVq1mqlFTMozopFtmwGE11nepHnPrFEZbvqohnMd21aovzYrrTJFNlgfokW2SBeaJrF3RkMIT/blQVgSddYtmxxF9jVMINXb4f2ssrJrsNQTs0bs8FBkX9c7u9fXl5kZRkb1LMZVfNGbXBAuL9/kZFdNoOR7E562XT8bAOEKk9mGUCAr2Tu+6Vkp4kZYSFNVIJsQk0twHVoIiC0Ef0ijzLdC0cwS2jCI9wZTcRqNulvLqEJxhetPcKdu2pIzZtz1TZhDvM2qFg8WjVv1FWDbLH6DEqyN+WqtZ7xA8KdumpAdveuGpCFCHfrqsH9DX9ztxE9QKhy1RbbYAxwFRtkdtENZfyVInrFhlQOsGQ5B4S7dtWAbJVcoitH9AHhSjSh9Ch37qrNQz4z/hKayET0kexKhqDZcbswh3mAKx487J4mwEgTxm9SsjmAajWLXDUnUjeSIs7j7XBrX+6PCGvyuZsE2Qarti1R05s/PzQpQ2iPfnbtKAWwfvMatov+v/0J4mvc9q9SXV+FVsZmBKBucX/+47Ox/fhgFBEi+vpiX9cur6qEq3b/qWv3izxKDFe7/37+7JOxPXvA3dzblQmhzG33b7t2X2GDXWSvGKBy/w0InzxIbTKNAWFik5kRWtUcRSp2iea2MoAw4ap1eoR1giZmhFY1nWxJ8mVepXVCdvPmYmyvL/y/Yae5QL95fdUkjiEIQjObFblq8xzWcoQALd01zIdzSwGsMEK7R1m0/0I7xADTyReEUOuqIYQFHmVJRN9ShClXDQ45RKiO6CHCooMHNyKWxU3mMDWD+L4AoZ68AcK2xKPEcJWLG/GhHiBAaEiAArYoierwT9rFDedQa4MIocX9AoxfEtWhn9QuPWZ8Ooyy6xGip9gGxa4B4xdFHqwivKsGvokY38vSiD4OreYIWO9jxIxvzhFpZpDOPWR8r0jOBnuRgNAUD0aMn7dBZB1FdTKA8XW9OBHM+MrDBMr41oOHkv23Fhk/E/0TxteNLUJYcPBQcqpGEcaumnC8gRhfax0QYcnhn66XCs19xPhZmnC3Q4yvtQ6AcLd1bfCbPOPnC4Eg46vdL8j4VhusSJZbvbgx4yuXaMVluRVKA8Y322A17fX25AtAaAFYvfQZUoN30s4I7TZYO8Y3zz1kfK0N9iL1S5LlVlhHKzK++gC+5PQ1ZnzVITHNcuu6JggtXiIFSL8p77+UD7XllP+4HNrrKgsQ3g4j1Lpq8+0K9t86YnxtQey1O9m1AKSMX6nVdCL2/TdmfEtJs1+heobiGN+SI8I/KRc3RqidwenCHAIBhCaayAAMh07eMajhBWL8IBLJMlt/poKQa3Qv5Vpif+M/njT69k9S+/DEzeELUeTz1jSD1ds3J2N784Ze3A7NfXASiZwk8rQ8wEmjD8+ePXnmmr94Ml44gD1ERmS6+KmpEgAjG6z3n44gnt6e/r399Km/uE3b00jkfkfGC5+sxPuv0+hDAGJvT15sZFvhKghfR0AMzWU0hBSKbIMfygH2CP1dlCXNKyAUAYr7+rI57MQZZGliOUIpCSbv1e0ShJ+8aPDtcjSxGKEYIMnuxKI5dAj1B79LEcYziLLcvA/0od85e5BPpgYvwGqURH5qLDO4GGEjLNEIIPKBHryQ2k/zVEntQ6OjiXCy/VRqMxBZpJPjBwFgOFXzXmRwaVoYAY8+TRBpoQh7u8TBb9e1Y+vmi834Lzgvdb/ZRCKdOIMFdW2jCPBLV3ryZdaoJoNBT4SrkBGPZDmArSkOCd8Ec7j7J18IQnNJXSoOEepkUIyf76XkiQbo9WCEFjVJXZuhnDKO8RXxc/GTLwhhQdWnfYlWLZPlVsSDqeON1GBAhEVVn/gnVTaYzmECoCXvLtgrynIr1MwA1CVqcAS8akQfdw0ypBo1eYCmJ1+aXF1bwlULtGpgKC7LrbXBSqpryy3uZF2bNIPd3+d2FClSUtemsEGhri2bx2Dq2vI2ePT9Y9++/4YqkrBXsa5Nk27h69ryQxPXtSk2jqPH925N7d6jTwVZzq5ydW3JGWx1Nhh9U1XXRpfd0WMP0CFUPpOSqWvLAZSfjU9tT4YsdwDYeoT37t0aEWqrPnFdm/19BjaamGQp4wseL1a6cQh7gCNCddUnqmsrL/uy7L/0zDvhfkGlJ4QDwAGhvvIaZbktaiKAxvfJZLLcPNGPCEeAA0K935qoa8vaoAgw5R2LdW05V21AOAHsEbY6G8QIDZ4MqWuzfJPWteldtR6hA3jr0Tc1vF16bKO6NssMjiKauc/XteWfPuv50BPiI8f4KvLOZrlz5Twl75PRZLmjZRczvir6j7PcajUpwEyoDL8Z1bUpwqWY8VUlzXGWW6/mJFuyPSmy3PHO2FDG1z75wta1kQQoq4OTFQH6JwSYbybq2uT4piWMr97Ak1nu7pVrV43Ir9IwXg+t09S1KZMvmPH1hclMXds8g9fvt2N7/0UVqZkGWL8dSl8uT+LnMQZZfCKsjOgx42dcNXBftq7NyTbX272hHWy/YNQcRfjRqztXoHXC+61wDtUPKUPG/6ZVLtGKqWsDarYTwgOPUKhrYzeZ6XHPk4odGvD8of5MBjF+lZaFFBzSFZeMmiPCA49QoHZ+GEeElw4hXdw/f+vaz1WeJrxGM+N7PtSdwL1869pLRs0BYQ9wb0QoULtAE3AO4+3JJ18q9QwCxvd8aAuBaiIyqdkjHACOCDMzSHkQIFQc5ioAVjMfOoQaPz9H19fbEeCAMFPXFhG932lSbp0p+TJHwIHx8zaY9SgHhHsTwmxdGxnGgHCtdzq1ng8D4+dtMO9R9gj3JoR0d8ZeD5N8eevZQpFvUHBbL+v40DF+wlUznE/Xjg/3PB9mAYZZqb0dmhKgyWU38aFj/MTTtZbz6Yjx466lXsJOY7DBzLIb+TAwvmGJJuLymjA+czseYMT4ayRfOMZX0ESaUhzju1XKdy2EyojxEzShfy6MYfwimkCnahPjOzvku5biQTiHy2bQaxRFwItowukwMr7baQQ1pXUCEC6kCb/t0Qi40AaxLOBD6XZSRD8zvmUGUSXxdFH5CxIBcyKVv5364GHmQzlHxH9zRqiiCXdx9IdE+2yOgB//kpI7atQAIeNLK55+0zu6M+OTdZJMvjx6nGgBYA8x0b532xAHsKKto4w/NxZgeGlQG+zQy/lx1SZf0MW9+eJW7uLeoyN3u9hVq16d0TYBPDiIfnEGcA7L7pI299aRqF35Ayou33D0mFc6DxCIPJJeXNSrebbd7m23B+P/xwsPcG/4YK/fdrbuYrt12vlZUb5nZXodUMXZIEm+FAO8NSHkbfDMBbwBV+IiqDndQotw/5rMoJR8KVyiw0Z7VLE0May3s60a4J4ffmdXNoSK5EvpDE4IpV30bKsGuOfXl9s4TAg1yZdigANCkaHOtmqAe15NtzNGe8zUhpcAvUZvBLpOuWog+VIMsEfYijx4tlUD3IbAb7rF9bV7OZz7tw182OHKXG3yRQ3wFhV59Gkb2aAnwrMAQwQYflVBgGFWQtlt8GkCVaqSL2syPufJVLRFMT4AhQDGyZcQ47teNMmX5uizRPsFAPwlJXckAozUpDE+44/gb4LkC46ALRF97ElXbhsCC5EXARe6BGiFY3zOo+SHplcaRcCrvCGWyXJbI/pYFsX4QtdCWA0RrvOGWKauzV7STGVhjC8UG0vDCFZpUUQf5wcNdW26KotBFsT4kppSWD1HwJYnXxLllIq6NnuOHsX4QtfSOgkI1yppzte12WcQRcAimwkaecZf72X+2rq2fDkPuG/Eh/E88BrVNWX8pU++ZOvaNDMYyTYUoTSDcS80xl/hLc04y61PviQARozPqIlwQ6WFLHfxky/KujaLDdYR4wtd870gxo9dNZ/LMmSi4Jm3VNfGAfROjj8xQrKE8VlLEnphs9x+7v8amiFZytS1aZIv7XVojJqQ8QWPUloniPGJ0u3z46l9/av4xHakdJzlVrlqbf3wS9ce1rGaXJabjK1kCJDx6Te758d3xnb8fPqVpqSZyXKrXLUe4d2xjQipLGR8YfFIvQDGp99sPMLDO89rHiBDKXGWW7nJPLzrWo8wko2z3MI7ReIQ6O14onHCRfRNOyE8PDweES6ra8tWZACETF0bZfz44IEH2G6m1wFd19zOOCE8PLwzItSGQCTLraYJv0rvPoweaG4bWrkXLx6hl1AJwC67EWEPcESofpk/znLreRAgrLBsv76676Z2diUA3LC95Lb+AeEAcECYPL9B9+Wz3FmAm3mnaQU1QxO6TvXCK90jHAH2CBu938pmuRWuGtpLOZFc0KOI0qP9t0fo2GIOOMQl6utkFFluNqL3O82EUBNr4/EqydE3Mx9u5MGAvUCEcpab80VrxBYFM5j4ozbywW9g/MPntQgw2vZoljvlqsHpgQhLynnsM1hvKOOr3K8a86EK4HhfzPgiQHFsiSKaUi7K+EryJnXeKhusEMJWZYNpgLqhwYyvWaJzXdstz/h5G3TaAz4UQ8ZE1zzATJ0MYnxbXZvnQzH5EgEEnjcNZFTlPPzNMzsjZHz9y/yZM29VRI/ZwqCml03WyfBDAxh/owA417WRCFgDsNkQxrdUXhf/VTLI+D6iSvcyISSMnzo2BJsXnkN71aedQfsPGMbP2lUN3zjwaVoWPSCJGL/gfDqiifz+Wwc+9Iwvu2pg6z+Cb43grYMNwyBCC03gsi/b0HSYD1VHjF6j6M2f2WNDgNCU5RMAqqruMR+qTsGtz1ID2ZkP7TYYA9QtbsSHqhBoycFvzPimDAMaPW3yBfKhalYUp2ryYMxsMYf2KjUnEfbmuaEBfFhrelmSfKk6yvjmHBFjvbnFDfnQYoNFyRfq05hzRHVqcVNFnGw786FzFZM0kZ/BhGxTIz4syBExm4zvpRKbR3jnuSwTRlq/RPk2I0xJyeYv77/1v/4otUMX4h8eiiL/7tQAR43+8xepffQIP4oi321SK959zMz9u6+PheYB9utUaC5no6+T+e2HL4V2NzRJ4oc+rpIZyg0jt7jfOV6f8dzhPmAvJgs11MmcAiTm1jOlaP7iDNYTwkKA0x5kscGlCClA9PYWaf99d1wMcERocdUWIYyjf+CYyzM4ICwGOJ4VW1y1VRAKjpHsA707LgY4IDQ8+dKP9AoIBScq8TL/d8fFAEH0r3LV6hUQckt06FoGWP/3f18JLcC5I0l8dehf5q901X77/c9Cm6FLEr9/7FiApK4tGvKEozHH+LIMvV3u4Fdswaf5LSW15l8lazYNjvEXRhPihuREmCy3JmFGAJreEEvOvC0RfWjJaAKLzBHwRgYo2KDPy1jLKVGMb4joz13hxKlhBlGMb1NzusgAFPZfHONTWVHpGaECYLgdzXKblugoYi+nBDF+Ih0UZ4HOXWnIaT60AmdjNMZXbRUIoL2cEsb4+WOIsMkAhGqA/bZGEOrVdLIlJc1xjK86VXMIDw5Oc7LodjjGNxzoOVmFIUTfjLLcyiOLc1cqeZoDiJIvCKHhvMsPhmoY3UXt7yXWtaV58Nw9AXqalk1mufVqYkI0fTNf1yaES+fuCdBTTlbsOlXXpsglSr0k919S16Y++D13xaCnOppwIrCurcrIcvubEiAaGmVdW+Sqnbti0FPNDIagJ1XXlqaJUTbdi5DD4uva8iXNgPH15q+oa0udgjfKXrDSybo22dkGfGjwMfJ1bTnzL9l/FXVtTLgUMX6CJsB91XVtwtiW7L9MXZsmXKKMr+w6U9eWTdRYfaChxXVtuqfPMOOrlmidrWtj1MRdW21wkA2MH7LcuoD33D0ccaoFOIro6tpiNT23kF40Jc3ZujYpoj93j0OesgClOhlVXZu8gUvDmEyzkro2bfIF8KF6iVbpujZFNjjTC29XfF1bfGQR3mnjXnsDYnw/wE2kNN04EnVtqrxPxS7RzDeTdW3z7fx7GsYXEg8tsEXnPvC/ue7knTGKgPV/c6CiZV/qUodUXdsc0ftHIeYW3tpBf/H+VeWHPApkxLo27d/KUhhCpD1T1xYPY3P9nr7CQnprx8H2FVUa3BdHwAo2I5DMPtDwwcz4jXDzetN279O4wIVDyPv5fF2bPvdq2X/DKpfq2tAuOiLUvTBnQiikUNJ1bTJNCGVfqmKV7tevXfu1FQGOCJVvBBoRCl3XH39w7aHhAR0ZoG5x/zO0UYT3l3qE2lceDQjFkrq/hWZw1Whdm3X/RU2KJrpoL92G9//Ee2nuGGL8pEDNBv+k3H+RrOjJbF7R9p2fuOg353KWz07XWLay2qDB0ivaaHwImqWUy6pmwf6blhX9sAhhmdJWNQvnPh/Rx7IeoY+Ai0qaNWPL17VZ9t/CBCiJ8U11uwu2CrWrZitpZmVRjG93v0plMcASG1SnsGGMfzM2OAO0FJoXA4QxvvnJl5yaovnjn3Zc0jzH+Cb3yxLR83Vt2iekkGzJco6z3EvejqbsOq10ycv8E4Mx82HJzphQU2aoTW3sZVGdDMP4O6WJBMAlrlpiMCjjmxiq3KPctasGFXGMT7Pcu6IJJ7uuq5bmTMz4S1w18UiWGwx1L4teOzbKQsZfShMVkZU50328O1cNiADGL/ISS9SsBaW7rCFY1omXnRlf/3y0js0SamZ6WbecMs5y78pVw7croYnUDCbq2tzJzUFVskSLt4pdu2qzSPuFPzSrskovdNWgbIm/ZKYJdLvQlkX0ao/ypmzwpiL6+Har0ER+MG4uoo/UlJReHtGnb7djVw3sb8I3d2SDpiW6BgWHv0q2Q1eNHYPCXbREzYzSmiXa5mTXWaKl1vF/bQLb1V0I4K4AAAAASUVORK5CYII=;" parent="1" vertex="1">
          <mxGeometry x="1015" y="173.5" width="51.5" height="51.5" as="geometry" />
        </mxCell>
        <mxCell id="J2sCJQliTzjDpWUBcW_3-58" value="&lt;b&gt;BI &amp;amp; Reporting&lt;/b&gt;" style="text;html=1;align=center;verticalAlign=middle;whiteSpace=wrap;rounded=0;" parent="1" vertex="1">
          <mxGeometry x="975.99" y="225" width="88" height="30" as="geometry" />
        </mxCell>
        <mxCell id="J2sCJQliTzjDpWUBcW_3-59" value="&lt;b&gt;Ad-Hoc&amp;nbsp;&lt;/b&gt;&lt;div&gt;&lt;b&gt;SQL Queries&lt;/b&gt;&lt;/div&gt;" style="text;html=1;align=center;verticalAlign=middle;whiteSpace=wrap;rounded=0;" parent="1" vertex="1">
          <mxGeometry x="979.99" y="360" width="80" height="30" as="geometry" />
        </mxCell>
        <mxCell id="J2sCJQliTzjDpWUBcW_3-61" value="&lt;b&gt;Machine Learning&lt;/b&gt;" style="text;html=1;align=center;verticalAlign=middle;whiteSpace=wrap;rounded=0;" parent="1" vertex="1">
          <mxGeometry x="966" y="518" width="108" height="30" as="geometry" />
        </mxCell>
        <mxCell id="J2sCJQliTzjDpWUBcW_3-64" value="" style="shape=image;imageAspect=0;aspect=fixed;verticalLabelPosition=bottom;verticalAlign=top;image=data:image/jpeg,/9j/4AAQSkZJRgABAQAAAQABAAD/2wCEAAkGBxMTEhUUExIVFRUXFRgXFhYYFRUXGBUYFxcWFxcVFxgYHSggGBolGxcVITEhJSkrLi4uFx8zODMtNygtLi0BCgoKDg0OGhAQGy0lICUvLSsvLS8vLS0vLS0tLS0rLS0tLS0tLy0tLy0tLS0tLS0tLS0tLS0tLS0tLS8vLS0tLf/AABEIAO0A1QMBEQACEQEDEQH/xAAbAAACAgMBAAAAAAAAAAAAAAAAAQQFAgMGB//EAEMQAAECAwQGCQIEBQIFBQAAAAECEQADIQQSMUEFBiIyUWETQmJxgZGh0fAHsRQjUsEzcoKSokPhFyQ0U7IVY4PC8f/EABoBAQADAQEBAAAAAAAAAAAAAAABAgMEBQb/xAA6EQACAQIDBAgFBAECBwAAAAAAAQIDEQQhMQUSQVETYXGRobHR8CIygcHhFDNC8SNSYgYVJDSCkqL/2gAMAwEAAhEDEQA/APalG9QQAPS7nAADdoYAEi5jnACZjeygAIvbXykANW3hlAAVPs/KQBGtGkJcsFKlV4Cp8omxFzRLtE07qLgPWXj4JhkB2iylCSsrKlBiKsMQcBTB4AmpqyxhjEEmSheqIAFG9QQAPS7nAAk3aGABIu4wAmbaygAIvVgBq28MoACX2c/aAAFtn5WABOxjnACAu7XysANnN7L2gAUL2GUAPpxwMAJTdXGACjdqAAN1sYASe14QAd+78aAA8t348AVlv05KRSWb6uCcPE+zxZRIbNEuVaJ1VHok/pFFHvz8/KGSI1LGx2CXLFE7XE1PnlEXJsSk9rwiCTCYgkEKwIIHjhAETRU0lLHq0Pd8eJZBOPZiCQU3VxgAo3agADdbGAEnteEAHfu/GgAPZwgBq7PjAAWy3vjwABs9740ACe14QAg/Ww+NAB3bvx4AFdnxgDJ0coAShdqIAGpezgAAvVMACTexgCLb7eiUklZ2RQNio5ARKVyLnMLt061K6NGyn9INAOKzn8pFrJFbtkq2aHEi6outOCyKKQf1JbLkXhe4sTUaOWEhcm0qIODkn1/2iLk2H/zaall/25cqGGQzMjpWZ/qSj4On7gwsLm+XpdCqKBA84ixNzTJnJTON07Cqef8AvE8AWpN3CKkjIu1EADUvZwAAXqmABJvYwAn6uUABLUGEANWzhnAAQ21n7wAAPtHH2gATtY5QAgXocIAHbZy94AFG7hAGXQjjACAuVxgBN1vSAGU3qwAE3+TQBx31Cs88JRPkp6RMoKE2XmUlj0ieaWL8jyikpSjmjswtOjWvSqOzej6+T7SNqhrnYRKuqmdFMUSVGYGTwDLDpZuJGcVWIhI1q7JxFPRX7PTU7ORPlrS6VImoUMUkKSR3ihjRNPQ4JQlHKSsU21ZJmapSqgcOX8w9R6X1M9C9lLCwJiS4x8oqWMzt8mgCBbbbL3QkKU/AH1ibEEWdZlXbxASf0gAMOfOJuCw0fadnnnEMkkgXa4xAFd63pADIvVwgAJv8oAHfZ9YAAbtIABsc3gBXW2vlYAbPtfKQAHb5NAATe2flIAHbZ9e+AAG5zeAF0HOABNN7CADN+rAAa7uEANVd3xgA5De+PAHmmuupolKNqs8pK01M6zkFmOK5d1iOJAqMRmI5atKz3ke9gNob66GrKz4S+zIehNVLJbEGbY7TMs8wNelqZZQe9JSopOSnPm4isKcZK8XY2r46vhpbleCkuD0v5r6WMdL2HSllMuWbSZqZqrkvbv3lCoSemGyTlXKIl0sGrMtSlgMVGTcLWzeVvIdm1j0lZH6Szm7nelLCTzvp2XiXXqr5l4FI7NwNX9qfivJ5klX1IMyipNxOYlrBfvcCJji1xRnU2BL+E+9f2XWi9c7AANqYhfFcs07rl4CNP1UGckti4qOiT7H62Ohs2sVjmBk2mUVHIrAJ8FNF1Vg9Gcs8DiIfNB9wWYhC8ik54hsi4jW9zlaa1LQU3sIgCzfqwAKru4QA1V3faADJhvfHgAHaxgATTe8M4AQ4nd+NAAeI3fjwA1V3fHKAA8sYAMmO98aABNN7wzgDG6rn5wA0m9ve0AD9XKAAlqDCAGrZ3feAAjPOAAB6nGAPPNadW5tmm/jrCLqkuqbKAoQaqUlOaT1k+IqI5qlNxe/A9zBYyFeH6bEaPR+X15P6Ml6X0knSOjFzZWzMktNbFUtcvaLHN03mObjmISkqlO64FKFKWDxihPNSy7U8vPU6fV7Sn4izypowWkXuShRY8FAxtTlvRTPOxVB0K0qb4Pw4eBlb9DWeZvyJUzmpCVEdxZxEuEXqiKeJrU/km19WcnrRoHRVnS6wpC1bqJa1Fav5UKJAD5lhHNVp0Y6nr4LF4+s7Qaa4trJfU5a3apzJdmVaVgy5d9IEtbKmiWohN9bAAGo2WzyjnlRajvPJHq0tpQnWVGObs81krrgte8sf+H1qTtSZspQNQQpcskHAijesX/TTXys5/wDnWGnlVi+5P33GJkaZkChtBA7SZw8ASo+kRavHS/mTv7Lra7vjH0GnXu3ymTNQg8pkpSFHyKftD9TUWoex8HVV6bf0afqWVj+prUmWYgcULCvRQH3jRYzmjlqbAf8ACfei7sevdiU35ipZOUxBH+SXSPONo4mm+Jw1Nj4qGkb9j9sv7HbZU1N+VMRM/kUlX2MbKSejPPqUalN2nFrtRIAepxiTME7W97QAgXocIACWoMIAatnd94ACGqMYAGzzgATtb3tAGPSq4ekAZPfphAA/V9YAL12mMADXObwAXW2vTvgAu3tr5SADf5NAHnmn7F/6dafxcpP/AC003LTLGAvHEDgXJHAuMFRy1F0ct5acT3cLU/W0egn88c4vs992fAkfTO1XFWmyXryULvy1O7oVsuOTBCv64Yd2vEjbEN6NOvzVn2+7r6G7WTXIpWbNYR0s8m6VgAhJzSkYKUKuTsparsWmrXs92GpXBbMTj02Jyhr29vV4vgTNWdURIP4i0q6a0qqVEuEE/pJxV2vJs5pUN34pZsyxu0nVXRUluwXDn75d5b6x2TpbLPHGUthzCSR6gRrVV4NHHg6nR4iEutEHUS0mdYZJJqgGWf6Cyf8AG7FMPK9NHRtWl0eKmlxz7/ydA96mEbHnGu0LQEkLu3QKlTXQOJekQ7cS0N69o69R59py3aPmKMqz2JNpmqzlgyk995DFQ54c44qkqTdoxuz6LC0cbTjv1qu5Fc833P8AvqKLSWqM2SJAmKSmZPnCWJaXV0YOKip6s6aDzjOVBxtfid1HacKu/uJtRV76X9+0Sbf9PrZK25RRMaoKFXF+SmbwVFnhpxzRjT2zhqi3aia7Vde/oQ06w6SshAmKmBqBM9BUD3KVU+CojpKsNfE0eCwWJV4Jf+Lt4fg6LR/1OSphaZJT25ZvDvKFMQO4mNo4pfyR5tbYclnSlfqfr/R2WitPWe1BpM5Ki1Q7KHegsoeUdEakZaM8mtha1F/5IteXeWLts+vfFznDc5vABdu7XysADPtendAA1/k0AH4jlAAovu+0AD0brfM4AAWorGAEmm97wANmd2AAh6jCAGqu745QBot9lROlrlLDhaSlQ5HGvGIaTVmXp1JU5qcdUeG2hE6xz50oLKVpCpSlChKFMXBydN00qHjy3vQk0fbw6PFUozautfr+Dr/p7pTR9nT+YopnqopS0G6B+lCg4SnCpYnyA6KE6cVnqeVtXD4yvL4VeC0Sfi+s9EslqQsX0LStGRSoKHpHYmnmj52dOcHaaafWZTkuFfpY/bhBkRdpI4v6UKUbNMSMpr+aEe0cmCfwM9z/AIgj/ni+r7sn6y67yJDolNNmjFiyE/zKzPIeLReriYwyWbMMFserXtKfwx8X2L7sobJoS26RIXa5ipcrFKGuk/yoNE/zKc98ZKnUq5zdkd9TGYTALcw8d6XP1fHsWR3OiNEybKi5LlhL4nFSualGpjrhCMFZHgYjE1a8t6o7+S7DlNITun0xIlO6bMkqVntFN4+vRCMJPfrJcj1aMOh2bOb1m7fTT1O4Az6vzKOo8MxnSgsMQCnMEAg94OMCU2ndHM6W1Csc+stBkq4yyw/sLp8gIwlh4PTI9KhtbEU8m95dfrqcRpb6fWuSb0kicE1BRsTE87pP/iSeUYSw845rM9ejtehV+Gfw9ua99qMdEa+2yzK6OcDOCaFM10zUf1kO/wDMD4QhXlHJivsuhWW9TyfNad3oejat62Wa1hkLaY38JdFjiwwUOaSY6oVIz0PAxOBrYf5llzWnvtLsBqnCNDkG1XG78ygAVXd9oAfSJ+CAEoNu+8ADUfrfMoAAHqrHygBJrve0AAOR3fmcABLUGEANVN3xzgAIaoxgDzD6qWIJnyZxFJiSlbUrLIL95Sr/ABjixUUpJn02w6rlSnT5Zr6/leJOtf0zSQ8m0KTwExIU/wDUlm8jEywn+lmNLb0llUh3P+znbVqlbrMb6UKLdeSok+jL9IwlRqQzXgenT2lhK63ZP6SXtG2xa7WyUChSxMFQUzE7Q5OGU/e8I4mpHIVNkYWp8UVbs0+/gVVh0lNlylSZcy4iYoFZBZ6XWKhUJ4tGMZyit1M7quGpTqKrON2ll56cz0XVPVWzykJnBaLRMyUllS0fyDiP1GvdHfQoQS3tT5jaW069STp2cFy4vt9PM65qP1vmUdR4pE0rb0yZMydM6iSWwc9VI5ksPGKzkoxbZth6Mq1WNOPE476Y2QzFWi1TaqWq6DxJN+YRycpH9McuFi23NntbbqKCp4eOiV/svud2MW6vzOOw+fIOk9MyLP8AxZyEDgVC8e5IqfARSU4x1ZvRw1Wt+3Fs5e3/AFJkJN2zSps5RwpcCjwDus/2xi8TH+KuelT2LVavVkorv/HiaZdu0zaay5MqypPWWNuuNFuf8BDeqy0ViXS2dQ+aTm+rTw9Sh110GqUhCrTa5lptUw3JMsAJAqHLFy1QA11yoRnVhZZu7OzAYpVJNUoKMFm37/ORG019PrVIQmbLPS3QFKCHTMQoAOUB9sAvUVwpCVCSV0Wo7Vo1W4Ty7dH2+7Fhqn9R1IIk20laHYTm20ZNMA3gOIrxfGLwr2ykYYzZUZLfo5PlwfYeoSZ6VpBQoKlqAIUCCCDmCMRHUsz5+UXF2epsVTd94EDuJ+GAE1yuMADdb0gAa9WAB7/JoAHfZ9e6AC9d2flYANzm8AF1tr5WAOK+q8i9Y0r/AEzh5FK0/do5sUrwPa2FO2Ia5ryaZ1uj1dJKlq4y0nzSDHRF3SPIqxtUkutkTT+nZVml3ppr1EjeWRkB9zgIpUqRgrs3wuEqYme5D6vgjy7S860WtK7XNSEy0shGQqpghGayHJKjwPdHnVHKd5vQ+twsaGFaw0HeTzfq+XUv7JVg1MmzrMifLUm8q8ejVRwFFIIVg5Z6tjjFo4aU4KSM6216VHEOlNZK2a7ORVg2mxzP9SRM8r3/ANVjzEY/HTfJnbbD4unwkvL7rwOu0H9QagWpP/yIFP6kY+KfKOuni+E+88PF7C/lh39H9n695A+omsaZ6kSZKgpCWWpQOypR3Q/AAueZ5RXE1d74Ym2x8DKipVaitLRLkuPf71JcvXOz2SzokWdBnFCar3EFRqtTkXi6iTh4xdV4U4qMczCWyq+Kqyq1nu34au3DqIabXpa30Q8qWcx+Sj+87avB4jerVPdjV0tn4L5vil/7Pu07yz0d9NpSS9pmqmKNSlGwmvFW8rvpGkcMv5M5K+3KjypRsuvP8eZ2Oj9FSLKGkykIfEgAE96sT4mOiMIx0R5FXEVarvUk2ZaTt0uzylT5imSkOeJfBI4kkgAc4Skoq7K0aUqs1CCzZ5/qdJmaQty7fPDIlFpacgobiBxuA3if1KBjnpJ1J770Pbx0oYTDrD09Xr9+/wAj0obfJo6jwDlda9SpFsdSQJU//uAUW2UxI3v5sRzwjKdJS7T0MJtCpQ+F5x5cuz3Y4TQmm7VoieZFoQoyiXVLdwAT/FknA8xnmxjCMnTdmetiMPSx1PpKbz5/Z+/A9esVsQuWmZKUFoWLyVDAj5lHWmmro+bnCUJOMlZo39BziSoki7ve8ADVvZQAEPUYQA1bW77QAEvTOAAFqHGABOzve8AIBqnCAOU+p/8A0Kzl0ktv7o58T+2ersX/ALtdj8jdpPWGXY7JJKi8wykBEt2KiECp4JGZiZ1VTgr6lKGCni8RJRyV3d/XzKHQerU63TPxVtJY1TLqm8Mg3Ul8sTieeMKUqj3pno4nH08JDoMLrxfvV+Rs+pE//p7HLAdwq6KAE/lykgDKqvIRGKekETsOFukxNTsv4v7HcaNsokSkSskJSkf0hnjsjHdSR8/WqOrUlUfFtkXTn4ZMo/i7nRnJVa9kY3v5axWpuW+PQ2wixDqf9Pfe6vv+Tx7TJkdIr8MJnR5X2fwzu99Y8qe5f4ND7fDdP0a6a291e/LIr4qbHpOodhsE1AVLRenpYrE0hSk9pA3bvaAfjHoYeNJq616z5batXGQlaT+B6WyT7eP0Z3T0bOOs8EAWocYAT3QSo045BsSXwgEr5HkesmlZmlLWmz2c/lBRu4sWoqeofpANBz4qaOKpJ1Zbq0PqMLQhgaDq1fm92S+/4PUND6LRZ5KJUobCBnio4qUeZLnxjrjFRVkfOV60q1R1Jasmq2t32ixkBL0GMAVmn9CSbXKMmclzilQ3kKyUlWR9DgYrOKkrM3w+InQnvQ/s8+0La52hrV+HtRvWWaXTM6oOHSJ/TkFpyoe/CLdN2eh7FeEMfS6Sn864fb0f0PUhLJqDTvjpPAMk13sIAWbdWAA03cIAaqbvjAAeI3vjwADnj8aABNd7wygBDnu/GgDivqvPayoljBc0eSUqJ9SmOXFP4LHtbCheu5cl5kXUzQH4gi2WhaZyjuIcKCLuF8CgIyRlia4Vo0t745Zm20sY6K/TUVuri+fZ68ew76atKUlTgMCVHgBUkx2aHgRi5Oy1PONXFi1W6dbppCZUraSVEAAtdlgvSiRePNuMcFL/ACVHUeiPp8anhsJDC085S5ePe8uwmae1/wCpZk3i7dIoFv6EYqPM+Ri1TFcIGWE2E7b+IdlyX3fArbLqtabSTPtk0ykAFSlzKruipZOCBjizcIyVCc/iqOx11NpYfDrocNHefJaX7ePvMpbHowWq1dFZwpMt95VSmWMZq+Z4Bg5A5xnGnvytHQ7auJeGw/SVneXLr5Ls5/U9J0nqhZpspEoIu3E3UTE76e89biQeJONY9CVCEo2PlKO069Oq6l731T0/H0PNtLaJtOj5yVhTMfy5yN08jwLYpPPERwyhOk7+J9NQxNDHU3Hvi/fielao6yotkvJM9G+jj20v1T6GnAnuo1VNdZ8ztDAyws+cXo/s+svx2sY2PPPOdf8AWFc5f4CzutSjdmXcVH/tDlmo4Bm/VHLWqNvcie/szCRpx/VVsktPX0/o6TU3VhNjlsplTFt0i8qYIScbo9TXkNaVPcXWedjsbLEz/wBq0X37ToTwG78eNThGqm74wBBtumLNJDrtElB7UxAPkTFXJLVmsKFWfyxb+hU2jXvRyA6rUknsJmL/APBJEV6WHM6I7OxMv4d9l5lLpbW/R1ulKkmXaJ4OHRSFFSFZKS+Ch/tgYpKpCStqdNLBYnDzU7qPa0S/p/bbUizmTPkWi7LIElapV1SpdboUkl0lLeRAqzxNNytZoptCFKVTfhJZ658Tswb9MI2PME/V9YAZN2kABFzm8ADNtenfAABe2vlIABt8mgBXn2flIA8514kLtluRZJLEypZJcsApTKLsC1OjH9UcVe9Se6j6PZkoYXCuvU/k0vfictJmWrR8/BUmYMQapWObUWnmPAgxz/HSfI9dxw+Npf6l4r0Z0WsmuiZ9kTLlgomTHE4ZJSGdKVZhR9AQY2q4jehZavU87A7IdHEOc3dL5et/jzK/QOrNqtSEhzLs4JUFKe6ScVIR1zgHNGzyjKnRnUXUdeL2jh8NJvWemXk3w7PA9E0BqvZ7OHQl15zFMVeGSR3R3U6MYaHzOL2jXxOUnZclp+fqctr3p5U9YscgFW0Au7115SxyGJ5jkY58RVcn0cT2Nk4KNGH6qtlllfguf14fk6fVTQKbJLuUMxbGYviRgkdkV9TnHRRpKnG3E8jaGOliql/4rRfftZdk3aYxscBqtlkQpBRMSFoUGUlQoYhxTVmXhOVOSlF2aPMdOavTtGzU2qzEqlJLvUlANDLmfqQcL3dmxPFOm6T3o6H02GxtPHU3QrZSfj1rr6vtkXWsevaPwyFSFNOnJYBx+RkpSuCgXA444CNZ11u/Dq/A4cLsmXTtVflj/wDXK337ik1e03YLCgqeZaLQrfWhBAD1KEqmNsviqpUa8AM6c4QV9WdeLw2KxcrZRgtE/Oyv3cDbbvqlNVsybOhL0TfUpZP9KQmviYl4l8EUhsSCV5zf0y8czQjSGnLSwQJktJ4S0SR33pgvN3GClWkS6WzqGrT+rflkbv8Ah9bpv/VWyhyK5s8+SikD1iyozfzMze1MNT/ap+CXqy4sf0sscsPMVNm8rwlp/wAAD6xeNCKOWptmvL5Ul4+Z0Fg1SsUoBSLLKBGBUkLNO0tzGipxXA4p4yvP5psuJaAQw2QMhhFzmbvqHT8oAajeoIAHpdzgABu0OMAJIu4wAM21lAAQ9RhADVtYZQBG0nb0SZK5i6JlpKjzbIcyWA74iUt1XZpRpSqzUI6vI4/6eyti0W6eQlU5SmUosEoBJUXOCb1O6WI5qC1qS4nr7Vkt6GFpZ7q4c/fmUWuutaLSOhlICkJU/SqG0/8A7b1SDWpqa04416ynkj0Nl7Onh30k3Zvgvvz+xSaNBs0+RMnydglMy6tLhUsuL4BxapHMCMY/DJOSPRrWr0pwpSzzWXPl9j3AV2hh+0esfBnLa8ax9EkSZDm0TAwAqUA0vADrHADxyrz16u6t1as9bZeAVaXS1fkj4v05hqXqsLOnpJlZ6hXMS0nqg5nifDvihQUM3qTtTaTxEtyHyLx6/Q6lSwAxo2JNAPGOk8lJvJFDb9dLHIcGaJiuEoX/AAvboPeYxlXhHid9HZeJq5qNl15fnwOUt/1LXXoJCU9qaSr/ABSwHmYwli3wR6tHYMV+5O/UvV+hTzbTpS3At0ykKxCR0Uog5E0SociTGd6tQ6lTwGEzdk19X9/InaO+mdoXWbNlyhwDzFfsB5mLxwsnq7HPV25Sj8kW/D1Ok0f9ObGne6SaR+tV0eSG9XjeOHgtTzqu2MRP5bR7F6nS2HRsiULsmTLlnO6hKX7yKmNVFLRHnVK1Sq7zk32slgtQ4+8WMgTs45wAgGqcIAbPtZQAKF7CAH0w4QAlN1cYAMu1AAG62MAJPa8IAO/d+NAAeWHx4Aauz4wB5t9SNOIXNTZL92WkhdoWKlxUSwMyMeDlODGOPETTe5fLifR7IwkoQde15PKK+/vhcwn2aZaJQm2o/g7BKSOjkjfWAGRTNRoxI7h1ohpzV5ZRXAmFSnRqOFD/ACVZay4Ln9PbfA2araBFrWmdMliVZEfwZP8A3GO8o4qw2lHeIbAQpU993asuCGNxjw0XTjK9R/NLl2cupcNdS/8AqHorprKpbbUnbSezS+nuu1/pEa4mG9C/I4dj4l0sQo8JZfXga7LrF0Oj7OpjMmrlhEuXnMWkXSTmwZyfeIVXdpp8SZ4HpcZUjpFO7fJPP+in0dbLNZFqn2mcJ9sW5UJbL6N+qCNkKajuGFBTHKDhTe9J3kd1aniMVFUaEd2kueV+vn7uyPpL6izlG7Z5SZb0BP5iz3DAHlWKzxbeUUaUdhUoLerSv4Lv/ogDQekraXmCYQc5yrifCXiPBMVVOtUzfibvF4DCZQtf/bm+/wDJeWL6bpDGfOKj+lACR/cXJ8hG0cIv5M8+vt6T/ajbreZ1GiNW7JIYpkIByUoX1eClOR4R0RpQjojyq2OxFb55vs0Xci4792NDkA9nCABXZ8YAC2W98eAANnvfGgAT2vCAEO1h8aADOm78eABXZ8YAyZHKAEoXaiABqXs4AAL1TAAk3saNACvObuUABLbPysAUOuOn/wAHKAl7U+bsykYl6C82YDimZIGcZVam4stTuwGD/UTvLKKzb+xQaM1ds9gl/i7csTJxN5jtALVtMkf6kx63ssaM8Yxpxprfnqd9bGVsXLoMOrR+3XyXUOwaOnaUmC02pJl2VJeTJduk7R5H9WeApUoxdZ70tORNWtT2fB0qOdR/NLl7/vPTrbfpSzyEjppiJQAZKcyBklAqfAR0SnGGrPIo4etXl8EW/fFnF6wfUVC0KlyZTpUCkrmUDEEUSKmhzI7o5amKVrJHuYTYclJTqStbOy9f7Ob0fq9bLSEtLUEJTdSqZsJCalg9SCSTQHGMI0ak+B6lbH4XD3u1d5tLN3On0V9PpYrOmqX2UbKe4mpPg0dEcIl8zPHr7em8qUbdbzfp5nX6M0XJs1JUlCDxAqRzUanzjpjTjH5UePWxVas/8km/LuLJutnFzAwmFw/hABKD04QBm77OUABN2ggAVs4VeAAhtrP3gAAfaz9oAE7WNGgABekADts5e8ABN3CrwA+gHEwBiBdqYAG62UABF6ogBk3sMoALzi7n7QBXae01KsclUyaaCiQMVqOCU8/sHMUnNQV2dGGw08RUUIf0efydJiRNNrtSelt0wfkWVLnoEmib+JQog0DXqmjkty72696XzcEe46DqQ6Ci7U180n/J8bc/I1zbVKE38RpOZ004bljlsoS82mVupy2SX43sBDkr71R3fI0jTm4dDhFux4zfHs4vt7rGNu10ttrXcsyDLegTLBUtua22RzADcYh15zyiWp7MwuHW/Wd+3Jd3HxNmhNQ509ZVaJ1w4qD9JMVkXUaA89qJjhZPOTKVtt0qa3aMb+C7v6O50RqvZZDdHKF8f6i9tXgTu+DR0wowjojxcRtDEV8pSy5LJFxMWySORjU4jVY5jA98CDdcu41eBIghtoYcIAxmqevpABLS4bxgDY77OcAAN2hgATs41eAEzbWXvADIfay9oAFbWFGgAJvUgABbZz94AAbuOcAY9AeMANPawgAr/TADPZwgAV2fGAIWmNKyrNJVNmquhP8Aco5JSM1GKykoq7NaFCdaahBZnimn9ZJ1qnicolN3+EkFxLGRHawJVxA4COCdRydz6/C4OnQp7izvq+f4MNBaNtU9R/DpWSokKmOwD7zzTg+YBc8DFYwnLQviK9Cil0rWWi/Hkdzoj6cSpSb9qX0jB+jQSlD5C9vKr/LHTDCr+R4uJ23OWVFW63m/TzOl1fsKUVQhKEJySAA5xw5feOpRUVZHiVKk6st6bbfWS7YOjmBacDj35jxiUULBKgQCjExBJhaVAIL73z9oAVjACa54QBtHawgBKU38vCAMFVqAwgBy3amMAbKNTegAHaxgAT2/CAEHz3fjQAzy3fjwAK7HjAAeWMAFM9740ACe14QBiy+cAZJN6hgBP1coACbtBhAEDTumJNjlGbMUwwAxUtWSUjM/bE0ispqKuzfD4edee5Bfg8f0la7XpSaqYJZKEYAfw5IPFRoVGj5nINHG9+q8j6WCw+z6dpPN97+nLwOo1N1GkkqVaPzSkBk1CHL4jFWGdOUbxwyXzZnlYjbNSplS+Fc+P4PRZEpLBISEpSGCUgAAcAMo3yPJk3J3bKnTVrJIljAY9+Q+cYskUbLKxyriQjjvd5x+coqyUZ2iUGKcQfSBJAkzFSlXThx/cRJBut8xwnnWCBIQwSLxZg0QSY9MV0A8YAyRLqxrzgDKbSgwgBS1MHEAbGpezgAAepxgATtY0aAEC+ycPaAGS1Bh7wAK2cKvAAQ1RjAAA4vZ+0ACdrGkALpjwgBk3qYQAP1fWAKvTenE2UBASqbOX/Cko31nj2UDNRoIrKVu03oUHUzbtFat6L1fUc7I1MXaJgtGkl31dSzyyRLljG6VYqydmc4lUZdFvO8zulj40YdHhlZcZPVnQ6VsqZdmIlpShAugJSAABeFABQRvFJaHlzlKTvJ3ZG1XD9Jyun/yi0ikS20haglBVwwHEnARCWZLKbQ8gzJl45VJ4nL3izyIR0Lts+vfFCwDY5wBBtk2WzE3jldxHjhEogr0qiSCxslnv1KnPzGIZJMDKoAzRBI36vrAGubQNzeAHKLB+MAZ3W2vSAERerADO3yaAAl9n17oAHbZ+VgAGxzeAAC7tfKwAM+16d0AIi9yaAH0/KABVd3HygCv0npIS2loF+eqiU8O0o5CJSIbMtG6PTLvLWypy9+YRU8EjgkcIhlru1mycmm94ZwII2kZBXLWnIgt3iqfUCJRDOc1etN2aA9FBvHEe3jFmVTN2lrX0sy6iqQWS3WOZ/aCVg2WkmfKkywm+L/WapfPDy8IjNk6Gibpr9Ka/qVj5D3hui5ruTpm8S3NwPLOGSGZJVYRLSVLrSmQc4RFybGeipNCo4Ye/wC0GESF2Sryy0LgQnqGIbtCBJIQsEULqiAa7Q9Hx/aAM5NBtYZQBnz6sAB7OEACq7vjlAAeA3vjwADgd740ACab3hnACHPCADmN349IAaq7vjlADvJ5eUAQdMW9NnllYqo0SOJ9olK5DdiDq3YzdNomF5syofJJw88e5omT4EJcS7AepxipYV59+gGZpAFdaNOyU0v3uSa+uHrE2IbOXtU1KlqUgFIJcA5ccObxoihIsNiXMe61MXOHhjENixcydAgB1Lc8EhvvFd4tYsbPYpaQ4SAR4n1iLk2JCdre9ogkqNK2gqUEDI+ZPz1iUQyzkIugIyzP39YgGxRu7vvAkFBqiANM1KAHNFcBj5CANC1F6v4xJBMl1oaNEEg+WUABLUGEANWzu+8ABDVGMAAD1OMACdre9oAQL0OEAN6tlACVs7vvAGXRJ4+sAcJp21CZabqlNLQq4/J9tX38hGsVZGbeZfHWFBP5MqZNI/SkhIyZ8R5RTd5lrmCl26dUJRJHEkE/v9hD4UM2YytXVTC86epR8/IqP7RO9yFiRO0dZpCCpSHbNRJc5ADBz3RF2xZIq9FWDp1FaxdQcLtK4AJ5D5nEt2ISuJSJllm/Y5LT88oajQ6SwWxMwX0muac0v8xirRZEq6+16d0QSaLZaAEFRywHEnAQRDKvREkzFlROFX4kxZkIuyptn1ipYjKt6EUBvnl7xNgYATDU7APnAgkSpATtD1x84gkjXry+8/aJIJr36YNEEg77PrAA92kAG5zeAC6216d8ADPtendAAdvk0AD3tn5SAB22fXvgAe5zeAF+H5wB5tJm3ZoUsO0wFQNXZTkfeNuBkj0hIzG5k2Dd0YmoyHqnCAGovu045QBzE9Rtk4IT/CRiricz3nLlWL6FdWdJJlpQkJAZgwHDhFCxrtVlStJTMDg4HMHiDlAHOWmwzbOq+k7OSh9lD4Ive5S1i1sGmErYKZB/xPdw7ohosmRNN2wLXdTup9VZ+WHnEpENmdnt5CQiUgk5nEk50ERYXJCbFMWfzFNyx/2EQSWFms6JeQfjifOIuDaKb2HnAkwmkgFWTf8A5TvgCJYUElxlEsgnGu77RBIPRut8zgABahxgATTe8M4AQDVO78akABD1GEANVd3xygAJegxgAejHe+NWABNN7wzgDHo1cfWAOB1isRlzlUYLJWnxNR4F/SNou6M2rM6DVPSt9AkqNUinNI/cfZopJFos6AlqJw84oWKTT1pKlCzSKrWNsjqo59/274slxZVssrBYkSZYSjEY8ScyYhu5KRJAepxiCTTPtKEh5qgng5YnuGJgCptesSWIQm+OdB7n0iyiVuU00E7RRdCsGBCfB4sipslylMFFJKXxq3nlAIvbDpCSAyR0Z4HA+PvFWmXTLNJBF7OKkjTXe9oAQL72HlAETSM1gE5E+giUQzZYwQkNnU/O6DCJBpu+8QSDUfrfMoAAHqcYAE13vDKAAHI4fGrACJagwgBqpu+OcABDVGMADZne+ZQAJrveGUAK+rh6QBD0pYE2lBQaEVSrEg+3KJTsQ1c4K0SJkiYxdK0lwR6EHMRqncz0OosetCehLp/NFAnJajQEcuIim5mX3iZouzCzIMycodJMqtSiA2d0Hl8yiG75BZGqbrFLvfkoXOV2UkJHiz+kN0bxqUm2z67MlPex8w5fyhkhmzKyatpJeZMUo55P3kuTDeG6WcixyUAshKWDlRqQ2Jc1iLsmyKAqVaZzB7uA7KXx7z+8W0K6nUIQJYCQKNTwihcj2jR0s1KceFPtE3IsR06KKRelzCnka/b2hcWNiTPzCVtwLH9oA2/jCaKlrS2YF4ekAQpq+kmAJwoAeWJLecTwBavcpFSRtcri8ADNtekADXqwAPf5NABefZ9e6AC82z698AB2ObwANd2vlYAGfa9O6ABr/JoAX4jlADUb2EARdI2CXORcWKjBWaTxBiU7ENXOL0roSbIL7yRULTl3/pPONFK5Rqxlom3yQt7TLMwnBaiVkd6SWIg0+ATXE7WxzEFN6WUlHZZhyYYHlGTLm4h6jCBI1bW77QBRax252kIDqLXmx5J8cfKLLmVbLDRVhElF0753jzyD8BEN3JSJqdneiCTEm7VRDczAEKdpWUDRV7kB8ETYi4JtE2ZuICBxUf2hawGuRslS1lZAcg0T4AQBq0TLd1Z4D94MIswWocYgkEi7vQAgKvlAAQ9RhADVtbsABL0GMAALBjjAAnZ3oAQDVOEANs8oAShe3YAy6VPD0gBFhu4+cAGT9b5lAAGO9jAFPbtXZUxy3Rq4pAAJ5pw8miyk0VcUUU3QdpkEqlkqHFBYkc0nHurFt5PUrZo3WTWiag3ZqH40uq8QafaDiuBO8WytZJNwqQSFNuKBBJy5eRiu6yd4i6JSiWDPnTE9IuoBIJAOJbifQRL5IInHTQV/DlTJiuLMnlX/AGitibmKha5mNyUPX9/2iciMxytCuXmzFK9B5l4XJsTpFjQg7KABxxP9xrEXFjeqm745xBJB0usMlCalR+2Xm3lEohkuRKCUgDeA9c4gk2APvYwAJrveGUAHLqwAHs4QAKpu+OcAB4je+PAAOe98aABNd7wygBDnhAD5DdgAVTd8c4Ad1HLzgBFN2uMAF3rekAATerAADf5NAAC+z8pAGq0SEK2FoSsdoA498AVds1akZXknkaeReLbzK7pCm6rKTtImjk4KSPEExO8N0zTItyahQWBzScP5mMPhGZsOlLT15DtmlKh6hxEWQuzcNYkmi5ak9zH7tDdFyTK0zJIa8w5gxFmTckotssbq0l+YhYkiWUXpqpmKUm6nmcz9/ODIIGkLVaUG0lEyWShCDLCpdAqaVAXyFOUhhgz1iCTZZ9NKnT5IQkJQUqE0GqkzbpUJQILBSLirw7SGgC8Bv8mgBu+zAATdpAARc5vAAUttfKwAXX2vlIAAL/JoAQN7Z+UgBu2z8rAATd5vAB0HOAMbPj4QADf8YAc/GAHaMoAa92ACVunxgDGzZwApW95wA5m95QAWnKAHPGyIA1fhUFNUJP8ASIXFjCRYJRxlp8hE3YsbLGgCgAA4RANcyyIUtTpBvXQrmEuUv3EmAFMsUtK3ShIN4rcBttQuqVzJFHgCVacBAArcgAk7pgDGzZwApe95wATN7ygDK05QA5u7AAjc84AVmzgDSTAH/9k=;" parent="1" vertex="1">
          <mxGeometry x="240" y="80" width="26.96" height="30" as="geometry" />
        </mxCell>
        <mxCell id="J2sCJQliTzjDpWUBcW_3-65" value="&lt;i&gt;SQL Server&lt;/i&gt;" style="text;html=1;align=center;verticalAlign=middle;whiteSpace=wrap;rounded=0;fontSize=10;" parent="1" vertex="1">
          <mxGeometry x="254.75" y="88" width="80" height="30" as="geometry" />
        </mxCell>
      </root>
    </mxGraphModel>
  </diagram>
</mxfile>
